<?xml version="1.0" encoding="UTF-8"?>
<svg version="1.1" xmlns="http://www.w3.org/2000/svg" width="512" height="512">
<path d="M0 0 C0.90182007 -0.00705963 1.80364014 -0.01411926 2.73278809 -0.02139282 C40.29099117 -0.2486147 40.29099117 -0.2486147 57.3046875 3.203125 C58.32014648 3.40180176 59.33560547 3.60047852 60.38183594 3.80517578 C108.76280095 13.48281862 151.80838147 36.0496411 187.3046875 70.203125 C187.88250977 70.75371582 188.46033203 71.30430664 189.05566406 71.87158203 C197.08958731 79.5566812 204.34632648 87.51466185 210.98242188 96.43652344 C212.30334815 98.20133558 213.65250587 99.94118986 215.0078125 101.6796875 C222.8643691 111.89321108 229.24836525 122.84519461 235.3046875 134.203125 C235.96815186 135.44376709 235.96815186 135.44376709 236.64501953 136.70947266 C266.93730665 194.32106381 271.22554952 264.42409772 252.04394531 326.19238281 C240.16792901 363.21287391 220.38036465 396.33474733 193.3046875 424.203125 C192.72605957 424.80753418 192.14743164 425.41194336 191.55126953 426.03466797 C183.02712909 434.92144134 174.22324998 442.90841714 164.3046875 450.203125 C163.44858887 450.84241943 163.44858887 450.84241943 162.57519531 451.49462891 C153.83416689 458.00972708 144.7869366 463.82863542 135.3046875 469.203125 C134.61342773 469.59999512 133.92216797 469.99686523 133.20996094 470.40576172 C76.74593369 502.53799935 7.21449216 508.93687981 -55.0703125 492.078125 C-93.28342058 481.18721124 -128.0501559 461.87242592 -157.01171875 434.69921875 C-159.29816223 432.57252678 -161.62518334 430.53239939 -164.0078125 428.515625 C-167.17924867 425.75277877 -169.95152466 422.81736015 -172.6640625 419.60546875 C-174.22452741 417.7599189 -175.80584472 415.94770125 -177.4140625 414.14453125 C-188.83154466 401.24724762 -198.13818294 387.12191045 -206.6953125 372.203125 C-207.35015625 371.08292969 -208.005 369.96273438 -208.6796875 368.80859375 C-222.73484253 343.76230748 -231.30988527 315.49399064 -235.6953125 287.203125 C-235.81245605 286.48576172 -235.92959961 285.76839844 -236.05029297 285.02929688 C-240.00779113 259.83773354 -239.02472076 232.24662365 -234.6953125 207.203125 C-234.53434082 206.2632373 -234.37336914 205.32334961 -234.20751953 204.35498047 C-225.95799266 158.20993248 -204.29948871 116.03094453 -172.81640625 81.546875 C-170.87699747 79.40388188 -169.00201951 77.21967862 -167.1328125 75.015625 C-164.2530769 71.71317592 -161.16502591 68.84870678 -157.8203125 66.0234375 C-156.39466229 64.80220037 -154.99842565 63.545834 -153.6328125 62.2578125 C-141.09757741 50.46250448 -126.72589263 40.53790625 -111.6953125 32.203125 C-110.94652832 31.77966797 -110.19774414 31.35621094 -109.42626953 30.91992188 C-81.34118989 15.13093878 -50.67429986 5.15300927 -18.6953125 1.203125 C-18.02643005 1.11692902 -17.35754761 1.03073303 -16.668396 0.94192505 C-11.09824578 0.26525792 -5.6081856 0.02927769 0 0 Z " fill="#0AA5DF" transform="translate(243.6953125,5.796875)"/>
<path d="M0 0 C1.88863014 0.00333092 1.88863014 0.00333092 3.81541443 0.00672913 C4.50806396 0.0065831 5.2007135 0.00643707 5.91435242 0.00628662 C8.21400537 0.00698577 10.51357828 0.01477823 12.81321716 0.02259827 C14.40362504 0.02446244 15.99403349 0.02588635 17.58444214 0.02688599 C21.77827021 0.03071123 25.97206386 0.04054156 30.1658783 0.05158997 C34.44220006 0.06180395 38.71852736 0.06638358 42.99485779 0.07142639 C51.39135799 0.08216383 59.78783017 0.09924032 68.18431091 0.12025452 C72.78907202 11.55751525 77.39314469 22.99505304 81.99681091 34.43275452 C82.53592857 35.77217228 82.53592857 35.77217228 83.0859375 37.13864899 C92.70719974 61.04269061 102.32302153 84.94891232 111.93040466 108.85853577 C112.38211029 109.98267065 112.83381592 111.10680553 113.29920959 112.26500511 C117.42943388 122.54378442 121.55941574 132.8226611 125.68876648 143.10179138 C134.90346889 166.0397443 144.12110477 188.97646865 153.36790466 211.90150452 C154.06997393 213.64245615 154.77203104 215.38341268 155.47407532 217.12437439 C158.36992444 224.30516684 161.26649254 231.48566333 164.16741085 238.66440964 C165.30170971 241.47226906 166.43467765 244.28066408 167.56729317 247.08920288 C168.08488292 248.37173597 168.60309168 249.65401944 169.12196159 250.93603516 C169.81771546 252.6551812 170.51121889 254.37523752 171.20457458 256.09535217 C171.59005966 257.04946991 171.97554474 258.00358765 172.37271118 258.98661804 C173.18431091 261.12025452 173.18431091 261.12025452 173.18431091 262.12025452 C146.78431091 262.12025452 120.38431091 262.12025452 93.18431091 262.12025452 C88.56431091 248.59025452 83.94431091 235.06025452 79.18431091 221.12025452 C32.65431091 220.62525452 32.65431091 220.62525452 -14.81568909 220.12025452 C-15.47568909 223.09025452 -16.13568909 226.06025452 -16.81568909 229.12025452 C-17.63273101 231.75909899 -18.47227011 234.35902954 -19.38209534 236.96400452 C-19.62105026 237.65917175 -19.86000519 238.35433899 -20.10620117 239.0705719 C-20.60557158 240.51990855 -21.10730229 241.96843402 -21.61134338 243.41615295 C-22.38540344 245.64099031 -23.15086281 247.86865667 -23.91529846 250.09681702 C-24.40373314 251.51105148 -24.89264761 252.92512034 -25.38209534 254.33900452 C-25.7258596 255.33885376 -25.7258596 255.33885376 -26.0765686 256.35890198 C-27.69993437 261.0044998 -27.69993437 261.0044998 -28.81568909 262.12025452 C-31.21917194 262.21522159 -33.5937989 262.24584313 -35.99757385 262.23377991 C-37.12433029 262.23399895 -37.12433029 262.23399895 -38.27384949 262.23422241 C-40.76829368 262.23352315 -43.26266412 262.22573016 -45.75709534 262.21791077 C-47.48202473 262.21604663 -49.20695465 262.21462271 -50.93188477 262.21362305 C-55.48081412 262.20979749 -60.02971175 262.19996689 -64.57862854 262.18891907 C-69.21688915 262.17870575 -73.85515486 262.1741256 -78.49342346 262.16908264 C-87.60085931 262.15834465 -96.70827156 262.14126779 -105.81568909 262.12025452 C-104.27935661 256.85240222 -102.75140404 251.63391498 -100.67115784 246.54994202 C-100.25366272 245.51949768 -99.8361676 244.48905334 -99.40602112 243.42738342 C-98.94308655 242.29478088 -98.48015198 241.16217834 -98.00318909 239.99525452 C-96.91768571 237.31435946 -95.83706322 234.63150864 -94.75709534 231.94837952 C-94.45676392 231.20282806 -94.1564325 230.45727661 -93.84700012 229.68913269 C-89.30917594 218.40189943 -84.88352635 207.07011107 -80.44068909 195.74525452 C-79.49166214 193.32727437 -78.54260586 190.90930573 -77.59352112 188.49134827 C-75.64781801 183.53381914 -73.70255587 178.57611727 -71.75758362 173.61830139 C-66.96783331 161.40929154 -62.17320053 149.20219887 -57.37818909 136.99525452 C-56.6820047 135.22278351 -56.6820047 135.22278351 -55.97175598 133.414505 C-50.14749437 118.58681969 -44.31293759 103.76328966 -38.45710754 88.94804382 C-34.36522606 78.59486193 -30.28731579 68.23624669 -26.21803284 57.87416077 C-25.97275974 57.24962383 -25.72748665 56.6250869 -25.47478104 55.9816246 C-22.78267362 49.12655596 -20.09160546 42.27108061 -17.40162659 35.41517639 C-14.8769846 28.98195692 -12.34788724 22.55050316 -9.81568909 16.12025452 C-9.48031128 15.26727783 -9.14493347 14.41430115 -8.7993927 13.53547668 C-7.94439767 11.36337405 -7.08597227 9.19267275 -6.22584534 7.02259827 C-5.77475403 5.88169739 -5.32366272 4.74079651 -4.85890198 3.56532288 C-3.39967045 0.14519562 -3.39967045 0.14519562 0 0 Z " fill="#FEFEFE" transform="translate(222.81568908691406,124.87974548339844)"/>
<path d="M0 0 C1.97411196 2.96116794 2.98796457 5.46694788 4.16723633 8.80981445 C4.59140335 10.0056868 5.01557037 11.20155914 5.45259094 12.43367004 C5.91248216 13.74351314 6.37229349 15.05338429 6.83203125 16.36328125 C7.31007085 17.71564062 7.78848585 19.06786734 8.26725769 20.41996765 C9.52991831 23.98895961 10.78761839 27.55968003 12.04425049 31.13079834 C13.30596234 34.7138515 14.57202789 38.29536479 15.83789062 41.87695312 C17.27021513 45.93010456 18.70215177 49.98338789 20.13056946 54.03791809 C20.56419296 55.2684642 20.99781647 56.49901031 21.44458008 57.7668457 C21.86309235 58.95597565 22.28160461 60.14510559 22.71279907 61.37026978 C23.61193366 63.90570611 24.51872313 66.43709842 25.43734741 68.96542358 C25.67021548 69.60876491 25.90308355 70.25210623 26.14300823 70.91494274 C26.78960907 72.6986324 27.43976315 74.48103283 28.09013367 76.26335144 C29 79 29 79 29 81 C10.19 81 -8.62 81 -28 81 C-25.74997418 70.87488379 -25.74997418 70.87488379 -24.01635742 65.96801758 C-23.6322319 64.87270218 -23.24810638 63.77738678 -22.8523407 62.64888 C-22.44087296 61.49244492 -22.02940521 60.33600983 -21.60546875 59.14453125 C-21.17623611 57.92529465 -20.74700348 56.70605804 -20.30476379 55.44987488 C-19.16873206 52.22328628 -18.02647656 48.99893593 -16.88287354 45.77502441 C-15.73507377 42.53563588 -14.5934476 39.29407394 -13.45117188 36.05273438 C-11.37521064 30.16585259 -9.2964236 24.27998872 -7.20565796 18.39834595 C-6.340725 15.96038965 -5.4805956 13.52103268 -4.62466431 11.07992554 C-4.17080301 9.79244356 -3.71689592 8.50497772 -3.26293945 7.2175293 C-2.85372757 6.0517485 -2.44451569 4.88596771 -2.02290344 3.68486023 C-1 1 -1 1 0 0 Z " fill="#0476A0" transform="translate(255,207)"/>
</svg>
